<svg width="128" height="128" viewBox="0 0 128 128" fill="none" xmlns="http://www.w3.org/2000/svg">
    <path
        d="M0 0 C168.96 0 337.92 0 512 0 C512 168.96 512 337.92 512 512 C343.04 512 174.08 512 0 512 C0 343.04 0 174.08 0 0 Z "
        fill="#1592F4" transform="translate(0,0)" />
    <path
        d="M0 0 C0.75478937 -0.00367669 1.50957873 -0.00735338 2.28724051 -0.01114148 C4.80636885 -0.02211922 7.32545587 -0.0260121 9.84460449 -0.02983093 C11.65526458 -0.03610017 13.46592339 -0.04274737 15.27658081 -0.04974365 C21.21526197 -0.07073588 27.15394323 -0.08114315 33.09265137 -0.09111023 C35.14222731 -0.09515992 37.19180311 -0.09927691 39.24137878 -0.10346031 C48.87465749 -0.12250322 58.50792858 -0.13673481 68.14122248 -0.14507228 C79.2355719 -0.15483448 90.32972128 -0.18113129 101.42400026 -0.22157317 C110.01535343 -0.25180872 118.60664949 -0.26654829 127.19805479 -0.26985329 C132.3215038 -0.27219572 137.44473889 -0.28105031 142.56813049 -0.30631447 C147.39451904 -0.32973002 152.22055483 -0.33377463 157.04698563 -0.32355309 C158.80848494 -0.32306084 160.57000244 -0.32928828 162.3314476 -0.34310913 C181.28973634 -0.48341645 196.57149268 3.74621606 210.74890137 17.02217102 C224.20875064 31.63489818 225.9135569 46.73702125 225.81311035 65.64985657 C225.81689991 67.6946398 225.82240518 69.73942045 225.82948303 71.78419495 C225.84336908 77.30262619 225.83231731 82.82074327 225.81577182 88.33915687 C225.80185641 94.13069856 225.80838855 99.92222322 225.81190491 105.71377563 C225.81460126 115.43356859 225.80117868 125.15323763 225.7779541 134.8730011 C225.7513256 146.09471089 225.7496066 157.31621392 225.76134247 168.5379445 C225.77213623 179.35817643 225.76592205 190.17833392 225.75178719 200.99855995 C225.74604354 205.59281496 225.74609723 210.1870152 225.75085258 214.78127098 C225.75563899 220.19293886 225.74545182 225.60438141 225.72389793 231.01600647 C225.71835338 232.9968674 225.71784324 234.97775008 225.7228508 236.95861244 C225.76507372 256.06208737 225.76507372 256.06208737 222.31140137 264.14717102 C221.88601074 265.21967102 221.46062012 266.29217102 221.02233887 267.39717102 C214.2445374 281.34913661 203.51676902 291.55991875 188.98327637 297.02217102 C182.5215513 299.24740085 176.68153008 300.29617084 169.82571411 300.29434204 C169.08065184 300.29801873 168.33558957 300.30169542 167.56794965 300.30548352 C165.07568822 300.31648086 162.58346854 300.32035755 160.09118652 300.32417297 C158.30200062 300.33044086 156.51281601 300.33708795 154.72363281 300.34408569 C148.84925233 300.36509874 142.97487169 300.37548901 137.10046387 300.38545227 C135.07351035 300.38950157 133.04655697 300.39361854 131.01960373 300.39780235 C121.49043708 300.41685199 111.96127815 300.43108064 102.43209612 300.43941432 C91.45886666 300.44917084 80.48583976 300.47544986 69.5126816 300.51591522 C61.0155997 300.54616575 52.51857554 300.56089185 44.02144086 300.56419533 C38.95439429 300.56653661 33.88756416 300.57537554 28.82057571 300.60065651 C24.04508436 300.62409755 19.26994947 300.62810664 14.49441528 300.61789513 C12.7526874 300.61740345 11.01094102 300.62361379 9.26926804 300.63745117 C-10.47680257 300.78540453 -26.6394032 296.52173139 -41.43469238 282.53388977 C-55.72581919 267.40065151 -56.99110701 251.39910243 -56.97912598 231.6151886 C-56.98511748 229.63807422 -56.99192445 227.66096217 -56.9994812 225.68385315 C-57.01708605 220.33442259 -57.02183428 214.9850561 -57.02311277 209.63559937 C-57.02453818 206.28690256 -57.02881516 202.93822184 -57.03410721 199.58952904 C-57.05258997 187.8882736 -57.06078011 176.18706362 -57.0592041 164.48579407 C-57.05800352 153.60902398 -57.07909416 142.73245258 -57.11069143 131.85573274 C-57.13691519 122.49230741 -57.14756883 113.12894672 -57.14629328 103.76548499 C-57.1457854 98.18433268 -57.15137201 92.60335705 -57.17264938 87.02224159 C-57.19213452 81.768166 -57.19208641 76.51443377 -57.17761612 71.26034546 C-57.17553955 69.34285157 -57.18015936 67.4253356 -57.19233704 65.50787926 C-57.31035984 45.62071591 -53.86535492 30.23461561 -39.83312988 15.20967102 C-28.89195007 4.68700628 -15.03552503 -0.0039788 0 0 Z "
        fill="#3599F2" transform="translate(170.6885986328125,106.85282897949219)" />
    <path
        d="M0 0 C3.62125195 3.03002714 7.12881539 6.06782581 10.4375 9.4375 C12.71645666 11.75151753 15.03724946 13.94549198 17.5 16.0625 C21.60510552 19.59834284 25.54995241 23.29335238 29.5 27 C33.98274132 31.20294642 38.47928099 35.36839261 43.1328125 39.3828125 C51.03722128 46.2288904 58.67549774 53.37832708 66.35205078 60.47705078 C69.00202925 62.92602348 71.65571093 65.37091853 74.3125 67.8125 C75.21613281 68.64394531 76.11976563 69.47539062 77.05078125 70.33203125 C79.3049683 72.37124947 81.57681077 74.37788314 83.87109375 76.37109375 C87.92134907 79.90423408 91.8446697 83.55812874 95.75 87.25 C97.1428006 88.56035152 98.53603424 89.87024289 99.9296875 91.1796875 C100.61256836 91.82131836 101.29544922 92.46294922 101.99902344 93.12402344 C104.94609758 95.88699534 107.90470426 98.63701789 110.875 101.375 C111.82117188 102.24898438 112.76734375 103.12296875 113.7421875 104.0234375 C115.83308286 106.02181596 115.83308286 106.02181596 118 107 C118 193.13 118 279.26 118 368 C59.280625 368.37125 59.280625 368.37125 -0.625 368.75 C-12.97502441 368.85924805 -25.32504883 368.96849609 -38.04931641 369.08105469 C-53.15698242 369.13525391 -53.15698242 369.13525391 -60.23471069 369.14532471 C-65.1672574 369.1564834 -70.0982467 369.20135964 -75.03036499 369.26690674 C-81.33229246 369.34954216 -87.63197275 369.37383751 -93.93439174 369.35686731 C-96.24059739 369.36041281 -98.54688578 369.38402479 -100.85262418 369.43058157 C-120.74306456 369.81337385 -120.74306456 369.81337385 -129.08383179 362.26641846 C-130.63309459 360.73846119 -132.11409565 359.17813229 -133.56621432 357.55779123 C-135.94111785 354.97748655 -138.57004934 352.70675057 -141.1875 350.375 C-142.47720703 349.18003906 -142.47720703 349.18003906 -143.79296875 347.9609375 C-146.03981008 345.8738089 -146.03981008 345.8738089 -149 344 C-149 343.34 -149 342.68 -149 342 C-149.87833496 341.60494263 -149.87833496 341.60494263 -150.77441406 341.2019043 C-153.09856286 339.94677217 -154.70607738 338.59314046 -156.609375 336.76953125 C-157.28226562 336.13080078 -157.95515625 335.49207031 -158.6484375 334.83398438 C-159.34195313 334.16689453 -160.03546875 333.49980469 -160.75 332.8125 C-167.61860962 326.25075792 -174.66441875 319.96061259 -181.91870117 313.8293457 C-188.32778826 308.40261089 -194.49816471 302.77099436 -200.6015625 297.00390625 C-204.97235912 292.89717859 -209.50246173 289.08124524 -214.19140625 285.33984375 C-218.20602471 281.99525897 -221.97562997 278.40679368 -225.77807617 274.82519531 C-230.98222905 269.95076625 -236.40280612 265.42064088 -242 261 C-239 260 -239 260 -235.42111206 260.92033386 C-227.84926703 262.72746268 -219.99977198 262.28705648 -212.26220703 262.2746582 C-210.46594024 262.27901045 -208.6696753 262.2841953 -206.87341309 262.29014587 C-202.01383724 262.303492 -197.15433938 262.30411943 -192.29474878 262.30158257 C-188.2293307 262.30050988 -184.16392821 262.30540387 -180.09851348 262.310188 C-170.50300094 262.32126803 -160.90752756 262.32172906 -151.31201172 262.31567383 C-141.43211565 262.30963475 -131.55236201 262.32194687 -121.67249024 262.3432439 C-113.17198569 262.36088989 -104.67152636 262.36685653 -96.17100418 262.36360615 C-91.10196104 262.36179793 -86.03301953 262.3643834 -80.96399307 262.37832069 C-76.19505713 262.39094326 -71.42634241 262.3889132 -66.65740967 262.37590981 C-64.91400959 262.3735541 -63.17059372 262.37624239 -61.42721176 262.38453293 C-43.14043467 262.46517859 -27.02801396 258.56119436 -13.3125 245.75 C-3.7834242 235.6915311 1.16535203 222.33127529 1.12698364 208.6383667 C1.12854363 207.78713108 1.13010362 206.93589547 1.13171089 206.05886483 C1.13570485 203.2016606 1.13253737 200.34450934 1.12939453 197.48730469 C1.13074932 195.44060739 1.13252969 193.39391034 1.13470459 191.34721375 C1.1392708 185.78303526 1.13749237 180.21887528 1.1343255 174.65469646 C1.13179636 168.83280576 1.13414112 163.01091665 1.13571167 157.18902588 C1.13753232 147.4071016 1.13513039 137.62518486 1.13037109 127.84326172 C1.12493476 116.53939036 1.12668699 105.23553705 1.1321975 93.93166614 C1.13673885 84.2270806 1.13737398 74.5225005 1.13475883 64.81791425 C1.13320091 59.02178225 1.13298891 53.22565873 1.13629532 47.42952728 C1.13918864 41.97620616 1.13717143 36.52290824 1.13140106 31.06958961 C1.13008105 29.07015077 1.13045469 27.07070996 1.13266373 25.0712719 C1.13540522 22.33734438 1.13195742 19.60349072 1.12698364 16.86956787 C1.12921436 16.08239089 1.13144509 15.2952139 1.13374341 14.48418307 C1.1164757 9.57425534 0.69431804 4.86192987 0 0 Z "
        fill="#067FE1" transform="translate(394,144)" />
    <path
        d="M0 0 C0.99 0.33 1.98 0.66 3 1 C2.10698344 2.06486855 1.2104053 3.12675041 0.3125 4.1875 C-0.18636719 4.77917969 -0.68523437 5.37085938 -1.19921875 5.98046875 C-3.36743345 8.41206744 -5.69632607 10.69632607 -8 13 C-0.41 13.33 7.18 13.66 15 14 C15 12.35 15 10.7 15 9 C15.66 9 16.32 9 17 9 C17 10.65 17 12.3 17 14 C24.26 13.67 31.52 13.34 39 13 C39 12.34 39 11.68 39 11 C38.34 11 37.68 11 37 11 C35.29006566 9.3777546 33.62652316 7.70586575 32 6 C31.401875 5.46375 30.80375 4.9275 30.1875 4.375 C29 3 29 3 29 0 C32.59479558 1.30565931 34.06754761 3.38689333 36.29685974 6.39039612 C40.37331315 11.49557065 44.0848296 14.22582082 50.67529297 15.02783203 C57.43252153 15.44201267 64.17548339 15.26479258 70.9375 15.0625 C74.44331079 15.00640125 77.94856275 14.96729475 81.45472717 14.94200134 C83.62531535 14.92119768 85.79583021 14.87990041 87.96556091 14.81544495 C97.04225954 14.64038911 97.04225954 14.64038911 101 18 C105.7651622 23.17360468 107.24385752 27.53469926 107.29052734 34.51513672 C107.30328705 35.81353485 107.31604675 37.11193298 107.32919312 38.44967651 C107.33225093 39.85967865 107.3344786 41.2696828 107.3359375 42.6796875 C107.34237004 44.13550954 107.34909873 45.59133029 107.35610962 47.04714966 C107.36806549 50.0951029 107.37179219 53.14294294 107.37060547 56.19091797 C107.37040235 60.08362884 107.39770344 63.97560904 107.43214989 67.8681469 C107.4544611 70.87431122 107.45844174 73.88030084 107.45738602 76.88653946 C107.45973567 78.32098025 107.46852327 79.75542633 107.48405075 81.189785 C107.62079568 95.12599973 107.62079568 95.12599973 103 101 C98.16685708 105.3728436 95.62910818 106.12557545 89.16291809 106.14717102 C88.45152654 106.15084771 87.74013499 106.1545244 87.00718611 106.1583125 C84.61131023 106.16937012 82.21547769 106.17319671 79.81958008 106.17700195 C78.10652528 106.18326511 76.39347185 106.18991178 74.68041992 106.19691467 C70.01699867 106.21433984 65.35358768 106.22488089 60.69014192 106.2331202 C57.77708078 106.23826791 54.86402285 106.24434379 51.95096397 106.25063133 C42.83827374 106.26968897 33.72559163 106.28391801 24.6128853 106.2922433 C14.09119606 106.30201415 3.56971728 106.32832731 -6.9518978 106.36874419 C-15.08191837 106.39890301 -23.21187862 106.41371202 -31.34195405 106.41702431 C-36.19864213 106.41937537 -41.05510552 106.42834277 -45.91173363 106.45348549 C-50.48279211 106.47676665 -55.05347798 106.48099928 -59.62458038 106.47072411 C-61.30032656 106.47022862 -62.97609106 106.47655286 -64.65178108 106.49028015 C-66.94429882 106.50800619 -69.23548042 106.50089065 -71.52799988 106.48774719 C-73.45018986 106.49132972 -73.45018986 106.49132972 -75.41121197 106.49498463 C-81.06273572 105.71549658 -84.75490052 103.52829462 -88.40869141 99.04345703 C-91.01427318 93.80086327 -90.53117426 88.02241283 -90.4609375 82.3046875 C-90.46002106 81.08024933 -90.45910461 79.85581116 -90.4581604 78.5942688 C-90.45213057 76.00714232 -90.4364034 73.42002262 -90.41162109 70.83300781 C-90.37531678 66.90923779 -90.3706008 62.98641986 -90.37109375 59.0625 C-90.36125337 56.53905448 -90.34959239 54.01561527 -90.3359375 51.4921875 C-90.33371185 50.33443817 -90.33148621 49.17668884 -90.32919312 47.9838562 C-90.07557702 25.76992868 -90.07557702 25.76992868 -84 19 C-80.12685126 15.30641455 -77.81121245 14.50983285 -72.48486328 14.58105469 C-70.53726608 14.59020905 -70.53726608 14.59020905 -68.55032349 14.59954834 C-67.8613007 14.61171135 -67.17227791 14.62387436 -66.46237564 14.63640594 C-64.29210022 14.67234215 -62.12340567 14.67980942 -59.95285034 14.67926025 C-53.78530111 14.68187654 -47.61864439 14.72825576 -41.45166016 14.81103516 C-37.67184962 14.85978357 -33.89353401 14.86940067 -30.11346054 14.85544586 C-28.67893757 14.85804552 -27.2443565 14.87559321 -25.810215 14.90877533 C-17.78420183 15.29724107 -17.78420183 15.29724107 -10.64080811 12.28430176 C-8.87686143 10.27453124 -7.4560174 8.23753496 -6 6 C-4.88357373 4.80516213 -3.73903169 3.63570169 -2.5625 2.5 C-1.716875 1.675 -0.87125 0.85 0 0 Z "
        fill="#D0E9FC" transform="translate(242,263)" />
    <path
        d="M0 0 C8.4175192 5.50839702 13.07653227 14.20689864 15.50390625 23.79296875 C16.01432861 27.09262824 16.13032308 30.25097971 16.20019531 33.58203125 C16.0807348 40.25699979 16.0807348 40.25699979 18.61328125 46.19921875 C20.70563234 47.76546157 20.70563234 47.76546157 24 49 C24.44730469 48.55269531 24.89460937 48.10539062 25.35546875 47.64453125 C27.23697917 45.76302083 29.11848958 43.88151042 31 42 C31.77601563 41.21625 32.55203125 40.4325 33.3515625 39.625 C36.24706929 36.75511716 39.19627553 33.9568784 42.1875 31.1875 C42.98704102 30.43436523 42.98704102 30.43436523 43.80273438 29.66601562 C47.76801658 26 47.76801658 26 50 26 C48.43717018 29.76603869 46.0936525 32.13639151 43.2109375 34.984375 C42.51600693 35.67506073 42.51600693 35.67506073 41.80703735 36.37969971 C40.33434102 37.84125078 38.85482597 39.29567168 37.375 40.75 C36.37193678 41.74302611 35.36932743 42.73651089 34.3671875 43.73046875 C31.91669165 46.15897941 29.4600333 48.58114675 27 51 C29.12737407 55.33652497 31.58835581 59.46743166 34.078125 63.60351562 C38.56742241 71.28389944 39 76.75431311 39 86 C50.22 86 61.44 86 73 86 C73 86.99 73 87.98 73 89 C62.11 89 51.22 89 40 89 C39.34 93.29 38.68 97.58 38 102 C36.68 105.3 35.36 108.6 34 112 C44.56 112 55.12 112 66 112 C66 112.33 66 112.66 66 113 C59.13719145 113.35838969 52.27683047 113.60147974 45.40673828 113.76904297 C43.07639459 113.8389565 40.74665406 113.93413495 38.41845703 114.05615234 C17.98551388 115.09927557 17.98551388 115.09927557 11.32910156 109.85644531 C7.79286491 106.5436757 4.90288153 102.8686978 2 99 C1.34 98.67 0.68 98.34 0 98 C2.11761724 102.01232741 4.4566386 104.22277079 8 107 C8 107.66 8 108.32 8 109 C8.66 109 9.32 109 10 109 C10.33 109.99 10.66 110.98 11 112 C3.41 112 -4.18 112 -12 112 C-12 110.35 -12 108.7 -12 107 C-12.66 107 -13.32 107 -14 107 C-14 108.65 -14 110.3 -14 112 C-21.92 112 -29.84 112 -38 112 C-35.03 108.535 -35.03 108.535 -32 105 C-30.32976457 103.00297937 -28.66185417 101.00400062 -27 99 C-30.60047236 100.52074746 -32.90006763 102.66244345 -35.625 105.4375 C-36.40101563 106.21996094 -37.17703125 107.00242187 -37.9765625 107.80859375 C-40.13190932 110.02787407 -40.13190932 110.02787407 -42 113 C-44.67019653 113.36076355 -44.67019653 113.36076355 -48.10205078 113.34057617 C-50.02381638 113.34023628 -50.02381638 113.34023628 -51.98440552 113.33988953 C-53.3880447 113.32456841 -54.79168034 113.3089204 -56.1953125 113.29296875 C-57.62734535 113.28737438 -59.05938393 113.28310353 -60.49142456 113.28010559 C-64.26287656 113.26864413 -68.03398265 113.23916624 -71.80529785 113.20599365 C-75.65270304 113.1753205 -79.50016406 113.16160618 -83.34765625 113.14648438 C-90.8985953 113.11429738 -98.44924921 113.06308584 -106 113 C-106 112.67 -106 112.34 -106 112 C-83.725 111.505 -83.725 111.505 -61 111 C-62.32 107.37 -63.64 103.74 -65 100 C-65.33 96.37 -65.66 92.74 -66 89 C-76.89 89 -87.78 89 -99 89 C-99 88.01 -99 87.02 -99 86 C-88.11 86 -77.22 86 -66 86 C-66 83.69 -66 81.38 -66 79 C-64.1736886 70.26593428 -60.90069061 60.79441057 -54.37890625 54.4140625 C-52.73613825 52.93494898 -52.73613825 52.93494898 -52 50 C-52.56170898 49.7642627 -53.12341797 49.52852539 -53.70214844 49.28564453 C-56.54335036 47.69599628 -58.47807285 45.74656724 -60.765625 43.4296875 C-61.65507812 42.53378906 -62.54453125 41.63789063 -63.4609375 40.71484375 C-64.38132813 39.77769531 -65.30171875 38.84054688 -66.25 37.875 C-67.19484856 36.92011363 -68.14015633 35.96568141 -69.0859375 35.01171875 C-71.39518338 32.67890913 -73.69963203 30.34155914 -76 28 C-75.67 27.34 -75.34 26.68 -75 26 C-72.04734888 27.32994383 -69.97649784 28.77779316 -67.70019531 31.07275391 C-67.07985413 31.69324615 -66.45951294 32.3137384 -65.82037354 32.95303345 C-64.83421051 33.95468033 -64.83421051 33.95468033 -63.828125 34.9765625 C-63.1457074 35.66181 -62.46328979 36.3470575 -61.76019287 37.05307007 C-59.58538402 39.23905845 -57.41763928 41.43190429 -55.25 43.625 C-53.7752001 45.10983255 -52.29994494 46.59421306 -50.82421875 48.078125 C-47.21084552 51.7135291 -43.60379147 55.35509824 -40 59 C-40.2165625 58.38511719 -40.433125 57.77023438 -40.65625 57.13671875 C-40.9346875 56.32847656 -41.213125 55.52023438 -41.5 54.6875 C-41.7784375 53.88699219 -42.056875 53.08648437 -42.34375 52.26171875 C-43 50 -43 50 -43 47 C-44.65 47.99 -46.3 48.98 -48 50 C-47.1875 48.0625 -47.1875 48.0625 -46 46 C-45.01 45.67 -44.02 45.34 -43 45 C-43.15855469 44.41734375 -43.31710938 43.8346875 -43.48046875 43.234375 C-46.00580917 32.37351245 -42.36993768 19.2433432 -36.6875 9.875 C-27.55829877 -3.06127238 -14.3726349 -8.43897829 0 0 Z "
        fill="#42A0F0" transform="translate(271,165)" />
    <path
        d="M0 0 C8.40768813 5.5019636 13.32071832 14.38830157 15.59375 24.03515625 C17.33739719 36.76042759 14.42812741 53.79404973 6.59375 64.2265625 C4.25744041 66.82627955 1.81218174 68.92434205 -1 71 C-1.928125 70.505 -2.85625 70.01 -3.8125 69.5 C-8.75717114 67.38946963 -13.71316473 67.3789561 -19 68 C-22.45346148 69.34746524 -22.45346148 69.34746524 -25 71 C-25.66 71 -26.32 71 -27 71 C-27 71.66 -27 72.32 -27 73 C-30.88136584 72.44387545 -32.62756918 70.72326862 -35.328125 67.96484375 C-36.52695313 66.75151367 -36.52695313 66.75151367 -37.75 65.51367188 C-38.575 64.66353516 -39.4 63.81339844 -40.25 62.9375 C-41.09046875 62.08349609 -41.9309375 61.22949219 -42.796875 60.34960938 C-44.87147597 58.23964588 -46.93875832 56.12300292 -49 54 C-54.79475476 56.6094773 -57.11884819 60.77860888 -59.39453125 66.515625 C-61.71318513 73.07814804 -63.12716199 79.01729589 -64 86 C-55.42 86 -46.84 86 -38 86 C-38 86.99 -38 87.98 -38 89 C-58.13 89 -78.26 89 -99 89 C-99 88.01 -99 87.02 -99 86 C-88.11 86 -77.22 86 -66 86 C-66 83.69 -66 81.38 -66 79 C-64.1736886 70.26593428 -60.90069061 60.79441057 -54.37890625 54.4140625 C-52.73613825 52.93494898 -52.73613825 52.93494898 -52 50 C-52.56170898 49.7642627 -53.12341797 49.52852539 -53.70214844 49.28564453 C-56.54335036 47.69599628 -58.47807285 45.74656724 -60.765625 43.4296875 C-61.65507812 42.53378906 -62.54453125 41.63789063 -63.4609375 40.71484375 C-64.38132813 39.77769531 -65.30171875 38.84054688 -66.25 37.875 C-67.19484856 36.92011363 -68.14015633 35.96568141 -69.0859375 35.01171875 C-71.39518338 32.67890913 -73.69963203 30.34155914 -76 28 C-75.67 27.34 -75.34 26.68 -75 26 C-72.04734888 27.32994383 -69.97649784 28.77779316 -67.70019531 31.07275391 C-66.76968353 32.00349228 -66.76968353 32.00349228 -65.82037354 32.95303345 C-64.83421051 33.95468033 -64.83421051 33.95468033 -63.828125 34.9765625 C-63.1457074 35.66181 -62.46328979 36.3470575 -61.76019287 37.05307007 C-59.58538402 39.23905845 -57.41763928 41.43190429 -55.25 43.625 C-53.7752001 45.10983255 -52.29994494 46.59421306 -50.82421875 48.078125 C-47.21084552 51.7135291 -43.60379147 55.35509824 -40 59 C-40.2165625 58.38511719 -40.433125 57.77023438 -40.65625 57.13671875 C-40.9346875 56.32847656 -41.213125 55.52023438 -41.5 54.6875 C-41.7784375 53.88699219 -42.056875 53.08648437 -42.34375 52.26171875 C-43 50 -43 50 -43 47 C-44.65 47.99 -46.3 48.98 -48 50 C-47.1875 48.0625 -47.1875 48.0625 -46 46 C-45.01 45.67 -44.02 45.34 -43 45 C-43.15855469 44.41734375 -43.31710938 43.8346875 -43.48046875 43.234375 C-46.00580917 32.37351245 -42.36993768 19.2433432 -36.6875 9.875 C-27.55829877 -3.06127238 -14.3726349 -8.43897829 0 0 Z "
        fill="#31E3F9" transform="translate(271,165)" />
    <path
        d="M0 0 C1.28095047 0.00030212 2.56190094 0.00060425 3.88166809 0.00091553 C5.26966989 0.02133903 6.65766527 0.04220297 8.0456543 0.06347656 C9.47339586 0.07094253 10.9011477 0.07663379 12.3289032 0.08062744 C16.07578116 0.09585609 19.82203296 0.1351128 23.56866455 0.17944336 C27.39619477 0.2204566 31.22382677 0.23865129 35.05151367 0.25878906 C42.55375139 0.30161079 50.05547428 0.36982721 57.55737305 0.45410156 C55.83241164 4.24271544 53.87042729 5.91152505 50.55737305 8.45410156 C47.97821008 10.9074517 45.82930408 12.9741261 44.0703125 16.07885742 C40.13071007 19.80259122 36.13874017 19.10600784 30.9128418 19.02050781 C29.34811882 19.02895973 29.34811882 19.02895973 27.75178528 19.0375824 C24.41569255 19.05405366 21.08092005 19.03848122 17.74487305 19.01660156 C14.41965839 18.99998633 11.09532441 18.99095413 7.77009583 19.0063324 C5.70213027 19.01558052 3.6339786 19.00655509 1.56620789 18.97669983 C-5.98966432 19.00524831 -10.23405368 20.49234162 -15.88012695 25.70410156 C-16.39575195 26.28160156 -16.91137695 26.85910156 -17.44262695 27.45410156 C-17.21314735 24.74261894 -16.95984496 22.03691068 -16.69262695 19.32910156 C-16.63075195 18.56855469 -16.56887695 17.80800781 -16.50512695 17.02441406 C-15.84960898 10.68774029 -13.88984287 6.79530145 -9.2056427 2.31402588 C-5.84602549 0.05249923 -4.020087 -0.03171666 0 0 Z "
        fill="#C6E4FA" transform="translate(169.442626953125,277.5458984375)" />
    <path
        d="M0 0 C0 6.27 0 12.54 0 19 C-14.19 19.33 -28.38 19.66 -43 20 C-33.38307081 0.76614163 -20.2203863 -2.31826085 0 0 Z "
        fill="#C4E2F9" transform="translate(257,277)" />
    <path
        d="M0 0 C1.11157227 1.51220703 1.11157227 1.51220703 1.11157227 3.51220703 C2.10157227 3.84220703 3.09157227 4.17220703 4.11157227 4.51220703 C4.11157227 5.17220703 4.11157227 5.83220703 4.11157227 6.51220703 C4.66844727 6.73908203 5.22532227 6.96595703 5.79907227 7.19970703 C9.31116803 9.19305868 12.29217101 11.87340453 14.11157227 15.51220703 C-0.07842773 15.51220703 -14.26842773 15.51220703 -28.88842773 15.51220703 C-28.88842773 9.24220703 -28.88842773 2.97220703 -28.88842773 -3.48779297 C-25.20068237 -3.81893745 -21.51884642 -4.10364078 -17.82592773 -4.36279297 C-16.26841797 -4.50974609 -16.26841797 -4.50974609 -14.67944336 -4.65966797 C-8.21995061 -5.06979449 -4.68703455 -4.62502383 0 0 Z "
        fill="#C7E4FA" transform="translate(287.888427734375,280.48779296875)" />
    <path
        d="M0 0 C1.04269043 -0.00574036 1.04269043 -0.00574036 2.10644531 -0.01159668 C3.57228041 -0.0143118 5.03816428 -0.00697835 6.50390625 0.00976562 C8.74328975 0.03118581 10.97946587 0.00995557 13.21875 -0.015625 C14.64584039 -0.01298165 16.07292879 -0.0078565 17.5 0 C19.44132812 0.00676758 19.44132812 0.00676758 21.421875 0.01367188 C25.27181196 0.61240033 26.47302865 1.42295867 28.75 4.53125 C29.25 7.53125 29.25 7.53125 28.75 10.53125 C27.18774414 12.68554688 27.18774414 12.68554688 24.75 14.53125 C22.10625447 14.92951196 19.88584167 15.09339694 17.24609375 15.0625 C16.52639908 15.0663269 15.80670441 15.07015381 15.06520081 15.07409668 C13.54809159 15.07681196 12.03093526 15.06947745 10.51391602 15.05273438 C8.19116129 15.03128381 5.87148798 15.05256075 3.54882812 15.078125 C2.07290984 15.07548226 0.59699348 15.0703584 -0.87890625 15.0625 C-1.91961021 15.07464539 -1.91961021 15.07464539 -2.9813385 15.08703613 C-6.17251629 15.0248995 -7.82905471 14.93311216 -10.18334961 12.68554688 C-11.65060735 9.72214968 -11.72614839 7.79626755 -11.25 4.53125 C-8.02665904 0.12015189 -5.28973718 0.01844032 0 0 Z "
        fill="#379AEF" transform="translate(189.25,326.46875)" />
    <path
        d="M0 0 C3.47609534 1.49346271 5.73290945 3.47974419 8.40136719 6.14257812 C9.2619574 6.99686401 10.12254761 7.8511499 11.00921631 8.73132324 C11.92914368 9.65529907 12.84907104 10.5792749 13.796875 11.53125 C14.75493637 12.48796371 15.71329443 13.4443804 16.67193604 14.4005127 C18.67567264 16.40130563 20.67575889 18.40565949 22.67333984 20.41259766 C25.2379383 22.98862107 27.81145211 25.55552099 30.38773727 28.11985016 C32.36612446 30.0910246 34.339741 32.06691997 36.3119278 34.04429626 C37.7207719 35.45512771 39.13365318 36.86192389 40.54656982 38.26867676 C41.39455139 39.12296265 42.24253296 39.97724854 43.11621094 40.85742188 C43.8680365 41.61083862 44.61986206 42.36425537 45.39447021 43.14050293 C47 45 47 45 47 47 C43.63664406 45.54254576 41.45465995 43.68882146 38.890625 41.0859375 C38.13652344 40.32539063 37.38242188 39.56484375 36.60546875 38.78125 C35.82816406 37.9871875 35.05085938 37.193125 34.25 36.375 C33.45722656 35.57320312 32.66445312 34.77140625 31.84765625 33.9453125 C29.89385507 31.96797154 27.94487897 29.98611091 26 28 C20.20524524 30.6094773 17.88115181 34.77860888 15.60546875 40.515625 C13.28681487 47.07814804 11.87283801 53.01729589 11 60 C19.58 60 28.16 60 37 60 C37 60.99 37 61.98 37 63 C16.87 63 -3.26 63 -24 63 C-24 62.01 -24 61.02 -24 60 C-13.11 60 -2.22 60 9 60 C9 57.69 9 55.38 9 53 C10.8263114 44.26593428 14.09930939 34.79441057 20.62109375 28.4140625 C22.26386175 26.93494898 22.26386175 26.93494898 23 24 C22.43829102 23.7642627 21.87658203 23.52852539 21.29785156 23.28564453 C18.45664964 21.69599628 16.52192715 19.74656724 14.234375 17.4296875 C13.34492188 16.53378906 12.45546875 15.63789063 11.5390625 14.71484375 C10.61867187 13.77769531 9.69828125 12.84054688 8.75 11.875 C7.80515144 10.92011363 6.85984367 9.96568141 5.9140625 9.01171875 C3.60481662 6.67890913 1.30036797 4.34155914 -1 2 C-0.67 1.34 -0.34 0.68 0 0 Z "
        fill="#B2DFF6" transform="translate(196,191)" />
    <path
        d="M0 0 C2.83809573 1.87536914 4.48448666 3.96897333 6 7 C6.77584995 11.42234474 6.34537985 13.34624528 4.25 17.3125 C1.06757519 21.11372964 -0.49223238 21.80454864 -5.375 22.4375 C-10.1853299 21.85694294 -11.61392593 20.38607407 -15 17 C-16.72869779 13.54260443 -16.48966895 9.78024432 -16 6 C-12.01379651 -0.37792558 -7.20355168 -1.33276721 0 0 Z "
        fill="#ECFBFE" transform="translate(263,241)" />
    <path
        d="M0 0 C3 1.5 3 1.5 5 4 C5.78631447 8.95378117 5.78352545 10.82471182 3 15 C-0.30984986 17.20656657 -2.14807289 17.81400735 -6.05859375 17.546875 C-9.81838767 16.48777812 -11.15396038 14.27523158 -13 11 C-13.06817573 7.04580795 -12.5665223 4.88377478 -10.4375 1.5625 C-6.99897127 -0.64168509 -3.90845692 -0.74299379 0 0 Z "
        fill="#3C9BEC" transform="translate(318,325)" />
    <path
        d="M0 0 C-1.54423066 3.68761222 -3.78392327 6.01461976 -6.61328125 8.80859375 C-7.9909668 10.17661133 -7.9909668 10.17661133 -9.39648438 11.57226562 C-10.36836175 12.52747384 -11.340368 13.48255093 -12.3125 14.4375 C-13.27324846 15.38820522 -14.23353957 16.33937285 -15.19335938 17.29101562 C-16.97209262 19.05234686 -18.75287508 20.81161281 -20.53637695 22.56811523 C-24.50849943 26.48906578 -28.44385273 30.44454313 -32.35546875 34.42578125 C-33.96602641 36.05480558 -35.57670653 37.68370884 -37.1875 39.3125 C-38.00669922 40.14845703 -38.82589844 40.98441406 -39.66992188 41.84570312 C-40.45302734 42.63525391 -41.23613281 43.42480469 -42.04296875 44.23828125 C-42.75477295 44.96055908 -43.46657715 45.68283691 -44.19995117 46.42700195 C-46 48 -46 48 -48 48 C-47.13081655 43.31942744 -44.25551279 40.87611397 -40.953125 37.66015625 C-40.34490906 37.05618515 -39.73669312 36.45221405 -39.11004639 35.8299408 C-37.16363146 33.90029994 -35.2070721 31.98132548 -33.25 30.0625 C-31.94722925 28.77478363 -30.64513797 27.48637944 -29.34375 26.19726562 C-26.94071597 23.81869635 -24.53377471 21.44423958 -22.12207031 19.07446289 C-20.16478422 17.1507786 -18.21875102 15.21797994 -16.27905273 13.27636719 C-13.51404704 10.51461967 -10.67976806 7.8421153 -7.8125 5.1875 C-7.27947266 4.68541016 -6.74644531 4.18332031 -6.19726562 3.66601562 C-2.23198342 0 -2.23198342 0 0 0 Z "
        fill="#D5F0FA" transform="translate(321,191)" />
    <path
        d="M0 0 C0.33 0 0.66 0 1 0 C1.00386719 1.10408203 1.00386719 1.10408203 1.0078125 2.23046875 C1.07032942 7.88754895 1.07032942 7.88754895 3.40234375 12.84375 C5.20671218 14.3625108 5.20671218 14.3625108 8 16 C6.52480504 19.43262806 4.60013334 21.62136444 1.9375 24.22265625 C1.14085937 25.00833984 0.34421875 25.79402344 -0.4765625 26.60351562 C-1.72566406 27.82071289 -1.72566406 27.82071289 -3 29.0625 C-4.64805762 30.67611679 -6.29398864 32.29190922 -7.9375 33.91015625 C-8.66839844 34.62308838 -9.39929688 35.33602051 -10.15234375 36.07055664 C-12.16864533 38.06355558 -12.16864533 38.06355558 -14 41 C-14.73046875 39.25390625 -14.73046875 39.25390625 -15 37 C-13.48828125 35.02734375 -13.48828125 35.02734375 -11.3125 32.9375 C-2.83495384 23.82487635 -1.83455401 11.85511039 0 0 Z "
        fill="#61E1F7" transform="translate(286,198)" />
    <path
        d="M0 0 C3.47609534 1.49346271 5.73290945 3.47974419 8.40136719 6.14257812 C9.2619574 6.99686401 10.12254761 7.8511499 11.00921631 8.73132324 C11.92914368 9.65529907 12.84907104 10.5792749 13.796875 11.53125 C14.75493637 12.48796371 15.71329443 13.4443804 16.67193604 14.4005127 C18.67567264 16.40130563 20.67575889 18.40565949 22.67333984 20.41259766 C25.2379383 22.98862107 27.81145211 25.55552099 30.38773727 28.11985016 C32.36612446 30.0910246 34.339741 32.06691997 36.3119278 34.04429626 C37.7207719 35.45512771 39.13365318 36.86192389 40.54656982 38.26867676 C41.39455139 39.12296265 42.24253296 39.97724854 43.11621094 40.85742188 C43.8680365 41.61083862 44.61986206 42.36425537 45.39447021 43.14050293 C47 45 47 45 47 47 C43.44519997 45.49158187 41.20440378 43.42366339 38.515625 40.67578125 C37.23558594 39.37930664 37.23558594 39.37930664 35.9296875 38.05664062 C35.04539063 37.15107422 34.16109375 36.24550781 33.25 35.3125 C27.96511082 29.92175622 22.69231207 24.6370835 16.95605469 19.72680664 C13.30807486 16.50636714 9.91883993 13.02249263 6.5 9.5625 C5.77296875 8.83095703 5.0459375 8.09941406 4.296875 7.34570312 C2.52890501 5.56610176 0.76333622 3.78419082 -1 2 C-0.67 1.34 -0.34 0.68 0 0 Z "
        fill="#D5EDF9" transform="translate(196,191)" />
    <path
        d="M0 0 C0.66 0.33 1.32 0.66 2 1 C0.71034824 2.37562854 -0.62689293 3.70766393 -2 5 C-2.66 5 -3.32 5 -4 5 C-4.268125 5.54269531 -4.53625 6.08539063 -4.8125 6.64453125 C-5.6671764 8.33982687 -6.54507097 10.02348924 -7.4375 11.69921875 C-14.96284384 26.09143885 -15.98176698 39.98642012 -11.19921875 55.6171875 C-10.49594203 57.75701525 -9.76724705 59.88239815 -9 62 C-8.01 62 -7.02 62 -6 62 C-5.34 62.99 -4.68 63.98 -4 65 C-4.33 65.99 -4.66 66.98 -5 68 C-11.15183096 62.93683576 -14.02458579 57.70534237 -16 50 C-16 49.01 -16 48.02 -16 47 C-17.65 47.99 -19.3 48.98 -21 50 C-20.1875 48.0625 -20.1875 48.0625 -19 46 C-17.515 45.505 -17.515 45.505 -16 45 C-16.23783203 44.12601563 -16.23783203 44.12601563 -16.48046875 43.234375 C-19.01566647 32.33111865 -15.35130492 19.19551405 -9.625 9.8125 C-6.83430783 5.81029784 -3.97616626 2.81241028 0 0 Z "
        fill="#5CDDF9" transform="translate(244,165)" />
    <path
        d="M0 0 C9.26390108 4.6400061 14.51127681 11.44999666 18.44921875 20.97265625 C20.90740865 28.52519446 20.32023028 35.57400315 19.375 43.375 C19.045 43.375 18.715 43.375 18.375 43.375 C18.31892578 41.90740234 18.31892578 41.90740234 18.26171875 40.41015625 C17.63404468 27.89359684 15.38286464 18.31579748 7.375 8.375 C7.375 7.715 7.375 7.055 7.375 6.375 C-1.45447109 1.59236983 -9.75387587 -0.25729977 -19.625 2.375 C-14.43875903 -3.30516869 -6.72038092 -2.77330788 0 0 Z "
        fill="#56E7FB" transform="translate(266.625,162.625)" />
    <path
        d="M0 0 C1.11157227 1.51220703 1.11157227 1.51220703 1.11157227 3.51220703 C2.10157227 3.84220703 3.09157227 4.17220703 4.11157227 4.51220703 C4.11157227 5.17220703 4.11157227 5.83220703 4.11157227 6.51220703 C4.66844727 6.73908203 5.22532227 6.96595703 5.79907227 7.19970703 C9.31116803 9.19305868 12.29217101 11.87340453 14.11157227 15.51220703 C12.13157227 15.51220703 10.15157227 15.51220703 8.11157227 15.51220703 C7.78157227 13.86220703 7.45157227 12.21220703 7.11157227 10.51220703 C6.45157227 10.51220703 5.79157227 10.51220703 5.11157227 10.51220703 C3.48657227 9.13720703 3.48657227 9.13720703 2.11157227 7.51220703 C2.11157227 6.85220703 2.11157227 6.19220703 2.11157227 5.51220703 C1.45157227 5.51220703 0.79157227 5.51220703 0.11157227 5.51220703 C-0.21842773 4.19220703 -0.54842773 2.87220703 -0.88842773 1.51220703 C-1.54842773 1.51220703 -2.20842773 1.51220703 -2.88842773 1.51220703 C-2.88842773 0.85220703 -2.88842773 0.19220703 -2.88842773 -0.48779297 C-8.33295692 -1.56403711 -13.73425363 -1.80972263 -19.26342773 -2.05029297 C-20.19026367 -2.09347656 -21.11709961 -2.13666016 -22.07202148 -2.18115234 C-24.34403067 -2.28655483 -26.61613699 -2.38867902 -28.88842773 -2.48779297 C-28.88842773 -2.81779297 -28.88842773 -3.14779297 -28.88842773 -3.48779297 C-25.20389355 -3.83227645 -21.51737413 -4.1037441 -17.82592773 -4.36279297 C-16.26841797 -4.50974609 -16.26841797 -4.50974609 -14.67944336 -4.65966797 C-8.21995061 -5.06979449 -4.68703455 -4.62502383 0 0 Z "
        fill="#B8DAF0" transform="translate(287.888427734375,280.48779296875)" />
    <path
        d="M0 0 C2.375 0.75 2.375 0.75 5 2 C5.66 3.32 6.32 4.64 7 6 C3.04 9.96 -0.92 13.92 -5 18 C-5 14.14074345 -3.74453145 10.91491401 -2.5 7.3125 C-2.26152344 6.61060547 -2.02304687 5.90871094 -1.77734375 5.18554688 C-1.18894322 3.4556493 -0.59500425 1.72763733 0 0 Z "
        fill="#3E9CE2" transform="translate(286,211)" />
    <path
        d="M0 0 C4.15321719 0.51945241 6.09888758 2.72559104 8.984375 5.62109375 C9.44483215 6.0810524 9.90528931 6.54101105 10.37969971 7.01490784 C11.34805383 7.98559656 12.31273083 8.95996576 13.27392578 9.93774414 C14.75005487 11.43755575 16.23914838 12.92351194 17.73046875 14.40820312 C25 21.7331885 25 21.7331885 25 24 C21.24794633 22.43809102 18.8656188 20.10972261 16.015625 17.24609375 C15.32493927 16.55472069 15.32493927 16.55472069 14.62030029 15.84938049 C13.65317817 14.87924882 12.68847596 13.90669939 11.72607422 12.93188477 C10.24631763 11.43377195 8.75861398 9.9439157 7.26953125 8.45507812 C0 1.14017532 0 1.14017532 0 0 Z "
        fill="#EAFCFE" transform="translate(218,214)" />
    <path
        d="M0 0 C0.66 0 1.32 0 2 0 C0.51346494 3.46629835 -1.45722351 5.69022036 -4.1328125 8.328125 C-5.34130859 9.52695313 -5.34130859 9.52695313 -6.57421875 10.75 C-7.41597656 11.575 -8.25773437 12.4 -9.125 13.25 C-9.97449219 14.09046875 -10.82398438 14.9309375 -11.69921875 15.796875 C-13.79504923 17.86915683 -15.89540713 19.93662393 -18 22 C-18.66 21.67 -19.32 21.34 -20 21 C-14.20667134 13.5134521 -8.20809212 7.14976113 -1 1 C-0.67 0.67 -0.34 0.34 0 0 Z "
        fill="#E0F7FD" transform="translate(319,191)" />
    <path
        d="M0 0 C0 3.39054655 -0.33942911 3.73636885 -2.5 6.125 C-5.10936312 8.49077798 -5.10936312 8.49077798 -5 10 C-2.56183415 10.0809723 -0.12635616 10.14046972 2.3125 10.1875 C3.00279297 10.21263672 3.69308594 10.23777344 4.40429688 10.26367188 C8.48231234 10.35746667 8.48231234 10.35746667 11.98046875 8.48828125 C12.48513672 7.75158203 12.48513672 7.75158203 13 7 C13 8.65 13 10.3 13 12 C5.08 12 -2.84 12 -11 12 C-7.37613 7.77215167 -3.95773294 3.84132903 0 0 Z "
        fill="#3993DC" transform="translate(244,265)" />
    <path
        d="M0 0 C0.66 0.33 1.32 0.66 2 1 C0.71034824 2.37562854 -0.62689293 3.70766393 -2 5 C-2.66 5 -3.32 5 -4 5 C-4.268125 5.54269531 -4.53625 6.08539063 -4.8125 6.64453125 C-5.6671764 8.33982687 -6.54507097 10.02348924 -7.4375 11.69921875 C-10.62811165 17.80126353 -12.86706733 23.20240399 -14 30 C-15.38880551 27.75023757 -16.04678737 26.47723118 -15.78515625 23.80859375 C-12.89241426 14.31727274 -8.20605503 5.80428283 0 0 Z "
        fill="#57EAFB" transform="translate(244,165)" />
    <path
        d="M0 0 C1.485 0.99 1.485 0.99 3 2 C4.32 1.34 5.64 0.68 7 0 C7.69670416 1.78810766 8.38211189 3.58062052 9.0625 5.375 C9.44535156 6.37273437 9.82820312 7.37046875 10.22265625 8.3984375 C11 11 11 11 10 13 C6.37 9.37 2.74 5.74 -1 2 C-0.67 1.34 -0.34 0.68 0 0 Z "
        fill="#469ADA" transform="translate(221,212)" />
    <path
        d="M0 0 C0.99 0.33 1.98 0.66 3 1 C-0.9419417 5.88049925 -5.11950075 10.0580583 -10 14 C-10.66 13.34 -11.32 12.68 -12 12 C-8.04 8.04 -4.08 4.08 0 0 Z "
        fill="#D4F2FB" transform="translate(242,263)" />
    <path
        d="M0 0 C0.99 0.99 1.98 1.98 3 3 C-1.27301206 7.27301206 -6.17760276 11.18050086 -12 13 C-8.19524578 8.43969176 -4.25030379 4.14910608 0 0 Z "
        fill="#409BE0" transform="translate(295,218)" />
    <path
        d="M0 0 C3.63061667 1.53218685 5.9863773 3.7183144 8.75 6.5 C9.94882812 7.69109375 9.94882812 7.69109375 11.171875 8.90625 C13 11 13 11 13 13 C12.01 13 11.02 13 10 13 C10 12.34 10 11.68 10 11 C9.34 11 8.68 11 8 11 C6.29006566 9.3777546 4.62652316 7.70586575 3 6 C2.401875 5.46375 1.80375 4.9275 1.1875 4.375 C0 3 0 3 0 0 Z "
        fill="#E6F6FC" transform="translate(271,263)" />
    <path
        d="M0 0 C0.33 0 0.66 0 1 0 C1.00386719 1.10408203 1.00386719 1.10408203 1.0078125 2.23046875 C1.07032942 7.88754895 1.07032942 7.88754895 3.40234375 12.84375 C5.20671218 14.3625108 5.20671218 14.3625108 8 16 C7.67 16.66 7.34 17.32 7 18 C4.69 16.35 2.38 14.7 0 13 C-0.33 13.66 -0.66 14.32 -1 15 C-0.67 10.05 -0.34 5.1 0 0 Z "
        fill="#6EDDFB" transform="translate(286,198)" />
    <path
        d="M0 0 C3.16115776 1.36983503 3.9927092 1.9890638 6 5 C5.01 5 4.02 5 3 5 C2.34 4.34 1.68 3.68 1 3 C-1.31 4.98 -3.62 6.96 -6 9 C-4.68775452 5.06326356 -3.08089673 2.77280706 0 0 Z "
        fill="#4BA0E2" transform="translate(220,218)" />
    <path
        d="M0 0 C1.33897583 0.95043374 2.67105427 1.91059147 4 2.875 C5.11375 3.67550781 5.11375 3.67550781 6.25 4.4921875 C6.8275 4.98976563 7.405 5.48734375 8 6 C8 6.66 8 7.32 8 8 C8.66 8.33 9.32 8.66 10 9 C8.68 9.33 7.36 9.66 6 10 C5.67 9.01 5.34 8.02 5 7 C4.01 6.67 3.02 6.34 2 6 C0.8125 2.9375 0.8125 2.9375 0 0 Z "
        fill="#4D9FDC" transform="translate(271,266)" />
    <path
        d="M0 0 C0 4.27053927 -2.30125972 5.82898018 -5 9 C-5 9.66 -5 10.32 -5 11 C-6.65 11 -8.3 11 -10 11 C-6.79239749 7.19364503 -3.59253891 3.45436433 0 0 Z "
        fill="#4399DD" transform="translate(244,265)" />
    <path
        d="M0 0 C0.99 0.66 1.98 1.32 3 2 C1.73742767 3.17560179 0.46462916 4.34022865 -0.8125 5.5 C-1.87404297 6.47453125 -1.87404297 6.47453125 -2.95703125 7.46875 C-5 9 -5 9 -8 9 C-7.34 8.67 -6.68 8.34 -6 8 C-5.71125 7.401875 -5.4225 6.80375 -5.125 6.1875 C-3.80034915 3.61179002 -2.10584139 1.96545196 0 0 Z "
        fill="#3D97E0" transform="translate(301,205)" />
    <path
        d="M0 0 C0.66 0 1.32 0 2 0 C2.66 2.31 3.32 4.62 4 7 C3.01 7 2.02 7 1 7 C1 6.34 1 5.68 1 5 C0.01 4.67 -0.98 4.34 -2 4 C-1.34 2.68 -0.68 1.36 0 0 Z "
        fill="#3A9FE7" transform="translate(226,212)" />
    <path
        d="M0 0 C4.2742558 1.5830577 6.26531794 4.50568404 9 8 C5.08158173 6.69386058 2.67359191 5.16870152 0 2 C0 1.34 0 0.68 0 0 Z "
        fill="#52A0D8" transform="translate(228,226)" />
    <path
        d="M0 0 C0.99 0 1.98 0 3 0 C3 0.66 3 1.32 3 2 C3.99 2 4.98 2 6 2 C6.99 3.485 6.99 3.485 8 5 C7.67 5.99 7.34 6.98 7 8 C5.83035398 6.8572081 4.66435444 5.71068285 3.5 4.5625 C2.8503125 3.92441406 2.200625 3.28632813 1.53125 2.62890625 C0 1 0 1 0 0 Z "
        fill="#4DDBF2" transform="translate(232,225)" />
    <path
        d="M0 0 C0.66 0 1.32 0 2 0 C0.55746343 3.36591866 -1.33264727 5.51047079 -4 8 C-4.66 7.67 -5.32 7.34 -6 7 C-5.04882866 5.8274869 -4.08882991 4.66212985 -3.125 3.5 C-2.59132813 2.8503125 -2.05765625 2.200625 -1.5078125 1.53125 C-0.76144531 0.77328125 -0.76144531 0.77328125 0 0 Z "
        fill="#E8F9FE" transform="translate(305,205)" />
</svg>